<svg width="60" height="38" viewBox="0 0 60 38" fill="none" xmlns="http://www.w3.org/2000/svg">
<path d="M41.84 37.1C40.94 37.1 40.14 36.85 39.44 36.35C38.74 35.87 38.2 35.19 37.82 34.31C37.44 33.43 37.25 32.44 37.25 31.34C37.25 30.22 37.42 29.05 37.76 27.83C38.12 26.61 38.58 25.39 39.14 24.17C39.7 22.95 40.3 21.78 40.94 20.66C41.6 19.52 42.24 18.48 42.86 17.54C43.5 16.6 44.06 15.81 44.54 15.17C45.28 14.15 46.12 13.09 47.06 11.99C48 10.87 49.02 9.82 50.12 8.84C51.22 7.86 52.38 7.07 53.6 6.47C54.82 5.85 56.07 5.54 57.35 5.54C58.15 5.54 58.74 5.63 59.12 5.81C59.52 5.97 59.72 6.21 59.72 6.53C59.72 6.75 59.55 6.93 59.21 7.07C58.89 7.21 58.46 7.28 57.92 7.28C56.5 7.28 55.04 7.06 53.54 6.62C52.06 6.16 50.52 5.6 48.92 4.94C47.32 4.28 45.65 3.62 43.91 2.96C42.17 2.3 40.34 1.75 38.42 1.31C36.52 0.849999 34.51 0.619999 32.39 0.619999C30.15 0.619999 28.14 0.889999 26.36 1.43C24.6 1.97 23.1 2.69 21.86 3.59C20.64 4.47 19.71 5.45 19.07 6.53C18.43 7.61 18.11 8.7 18.11 9.8C18.11 10.98 18.47 12.11 19.19 13.19C19.91 14.25 21 15.11 22.46 15.77C23.92 16.43 25.75 16.76 27.95 16.76C29.71 16.76 31.18 16.47 32.36 15.89C33.56 15.29 34.47 14.55 35.09 13.67C35.71 12.77 36.02 11.87 36.02 10.97C36.02 10.27 35.83 9.62 35.45 9.02C35.07 8.4 34.49 7.91 33.71 7.55C32.95 7.17 31.98 6.98 30.8 6.98C29.84 6.98 28.94 7.1 28.1 7.34C27.28 7.58 26.59 7.91 26.03 8.33L25.82 8.15C26.42 7.69 27.15 7.34 28.01 7.1C28.89 6.84 29.82 6.71 30.8 6.71C32.04 6.71 33.06 6.91 33.86 7.31C34.68 7.71 35.29 8.23 35.69 8.87C36.09 9.49 36.29 10.17 36.29 10.91C36.29 11.87 35.97 12.82 35.33 13.76C34.71 14.7 33.78 15.48 32.54 16.1C31.3 16.72 29.76 17.03 27.92 17.03C25.64 17.03 23.74 16.68 22.22 15.98C20.72 15.28 19.6 14.37 18.86 13.25C18.12 12.11 17.75 10.91 17.75 9.65C17.75 8.51 18.06 7.38 18.68 6.26C19.32 5.14 20.26 4.12 21.5 3.2C22.74 2.28 24.25 1.55 26.03 1.01C27.83 0.449999 29.87 0.169999 32.15 0.169999C34.23 0.169999 36.22 0.399999 38.12 0.859999C40.04 1.32 41.88 1.89 43.64 2.57C45.42 3.23 47.12 3.9 48.74 4.58C50.38 5.24 51.95 5.8 53.45 6.26C54.97 6.72 56.43 6.95 57.83 6.95C58.31 6.95 58.65 6.91 58.85 6.83C59.07 6.73 59.18 6.6 59.18 6.44C59.18 6.28 59.04 6.14 58.76 6.02C58.48 5.9 58.08 5.84 57.56 5.84C56.18 5.84 54.85 6.17 53.57 6.83C52.31 7.47 51.12 8.32 50 9.38C48.88 10.44 47.83 11.6 46.85 12.86C45.87 14.12 44.97 15.37 44.15 16.61C43.11 18.17 42.14 19.83 41.24 21.59C40.36 23.33 39.64 25.06 39.08 26.78C38.54 28.48 38.27 30.07 38.27 31.55C38.27 32.49 38.4 33.36 38.66 34.16C38.92 34.98 39.31 35.63 39.83 36.11C40.37 36.61 41.04 36.86 41.84 36.86C42.26 36.86 42.62 36.79 42.92 36.65C43.24 36.53 43.53 36.34 43.79 36.08L43.85 36.32C43.59 36.56 43.3 36.75 42.98 36.89C42.66 37.03 42.28 37.1 41.84 37.1ZM16.85 36.11C14.49 36.11 12.31 35.77 10.31 35.09C8.33 34.41 6.61 33.45 5.15 32.21C3.69 30.99 2.56 29.55 1.76 27.89C0.94 26.21 0.53 24.38 0.53 22.4C0.53 20.34 0.96 18.43 1.82 16.67C2.68 14.91 3.89 13.38 5.45 12.08C7.01 10.78 8.84 9.77 10.94 9.05C13.04 8.33 15.33 7.97 17.81 7.97C20.37 7.97 22.63 8.39 24.59 9.23C26.55 10.07 28.05 11.26 29.09 12.8L28.91 12.98C27.89 11.46 26.42 10.29 24.5 9.47C22.6 8.65 20.37 8.24 17.81 8.24C15.37 8.24 13.11 8.6 11.03 9.32C8.97 10.02 7.17 11.01 5.63 12.29C4.11 13.55 2.92 15.04 2.06 16.76C1.22 18.48 0.8 20.36 0.8 22.4C0.8 24.34 1.2 26.13 2 27.77C2.8 29.41 3.92 30.83 5.36 32.03C6.8 33.23 8.49 34.16 10.43 34.82C12.39 35.5 14.53 35.84 16.85 35.84C18.89 35.84 20.78 35.59 22.52 35.09C24.26 34.61 25.77 33.93 27.05 33.05C28.35 32.17 29.36 31.13 30.08 29.93C30.82 28.75 31.19 27.46 31.19 26.06C31.19 24.62 30.69 23.34 29.69 22.22C28.71 21.1 27.36 20.22 25.64 19.58C23.92 18.94 21.96 18.62 19.76 18.62C17.88 18.62 16.36 18.91 15.2 19.49C14.04 20.05 13.46 20.79 13.46 21.71C13.46 23.31 14.8 24.11 17.48 24.11C18.58 24.11 19.66 23.97 20.72 23.69C21.8 23.39 22.77 22.98 23.63 22.46C24.51 21.92 25.21 21.29 25.73 20.57C26.25 19.85 26.51 19.04 26.51 18.14C26.51 17.26 26.25 16.51 25.73 15.89C25.21 15.27 24.55 14.77 23.75 14.39C22.95 14.01 22.1 13.73 21.2 13.55C20.3 13.37 19.46 13.28 18.68 13.28C16.88 13.28 15.25 13.53 13.79 14.03C12.35 14.51 11.11 15.17 10.07 16.01C9.05 16.83 8.26 17.77 7.7 18.83C7.14 19.89 6.86 21 6.86 22.16C6.86 23.58 7.23 24.82 7.97 25.88C8.73 26.92 9.79 27.73 11.15 28.31C12.51 28.87 14.09 29.15 15.89 29.15C17.45 29.15 18.95 28.95 20.39 28.55C21.85 28.15 23.28 27.57 24.68 26.81C26.1 26.03 27.52 25.1 28.94 24.02C30.38 22.92 31.86 21.68 33.38 20.3C34.92 18.92 36.53 17.42 38.21 15.8C39.89 14.18 41.69 12.46 43.61 10.64C44.01 10.3 44.59 9.85 45.35 9.29C46.11 8.71 47 8.14 48.02 7.58C49.06 7.02 50.18 6.58 51.38 6.26L52.16 6.38C50.88 6.64 49.69 7.06 48.59 7.64C47.49 8.2 46.53 8.78 45.71 9.38C44.89 9.98 44.25 10.49 43.79 10.91C42.63 11.93 41.5 13.09 40.4 14.39C39.32 15.69 38.24 17.03 37.16 18.41C36.08 19.79 34.96 21.13 33.8 22.43C32.66 23.71 31.46 24.86 30.2 25.88C29.1 26.76 27.84 27.56 26.42 28.28C25 28.98 23.48 29.54 21.86 29.96C20.26 30.38 18.61 30.59 16.91 30.59C14.55 30.59 12.6 30.21 11.06 29.45C9.54 28.69 8.41 27.67 7.67 26.39C6.95 25.11 6.59 23.7 6.59 22.16C6.59 20.96 6.87 19.81 7.43 18.71C7.99 17.61 8.79 16.64 9.83 15.8C10.89 14.94 12.17 14.26 13.67 13.76C15.17 13.26 16.85 13.01 18.71 13.01C19.43 13.01 20.25 13.1 21.17 13.28C22.09 13.44 22.98 13.72 23.84 14.12C24.7 14.52 25.4 15.06 25.94 15.74C26.5 16.4 26.78 17.22 26.78 18.2C26.78 19.14 26.51 19.99 25.97 20.75C25.43 21.51 24.7 22.16 23.78 22.7C22.88 23.22 21.88 23.63 20.78 23.93C19.7 24.21 18.6 24.36 17.48 24.38C14.62 24.38 13.19 23.49 13.19 21.71C13.19 20.71 13.79 19.9 14.99 19.28C16.21 18.66 17.8 18.35 19.76 18.35C22.02 18.35 24.03 18.68 25.79 19.34C27.55 20 28.93 20.91 29.93 22.07C30.95 23.23 31.46 24.56 31.46 26.06C31.46 27.5 31.09 28.83 30.35 30.05C29.63 31.27 28.61 32.33 27.29 33.23C25.97 34.15 24.42 34.86 22.64 35.36C20.86 35.86 18.93 36.11 16.85 36.11ZM31.22 21.05L31.37 20.75H44.93V21.05H31.22Z" fill="black"/>
</svg>
