<svg width="68" height="60" viewBox="0 0 68 60" fill="none" xmlns="http://www.w3.org/2000/svg">
<path d="M49.84 42.1C48.94 42.1 48.14 41.85 47.44 41.35C46.74 40.87 46.2 40.19 45.82 39.31C45.44 38.43 45.25 37.44 45.25 36.34C45.25 35.22 45.42 34.05 45.76 32.83C46.12 31.61 46.58 30.39 47.14 29.17C47.7 27.95 48.3 26.78 48.94 25.66C49.6 24.52 50.24 23.48 50.86 22.54C51.5 21.6 52.06 20.81 52.54 20.17C53.28 19.15 54.12 18.09 55.06 16.99C56 15.87 57.02 14.82 58.12 13.84C59.22 12.86 60.38 12.07 61.6 11.47C62.82 10.85 64.07 10.54 65.35 10.54C66.15 10.54 66.74 10.63 67.12 10.81C67.52 10.97 67.72 11.21 67.72 11.53C67.72 11.75 67.55 11.93 67.21 12.07C66.89 12.21 66.46 12.28 65.92 12.28C64.5 12.28 63.04 12.06 61.54 11.62C60.06 11.16 58.52 10.6 56.92 9.94C55.32 9.28 53.65 8.62 51.91 7.96C50.17 7.3 48.34 6.75 46.42 6.31C44.52 5.85 42.51 5.62 40.39 5.62C38.15 5.62 36.14 5.89 34.36 6.43C32.6 6.97 31.1 7.69 29.86 8.59C28.64 9.47 27.71 10.45 27.07 11.53C26.43 12.61 26.11 13.7 26.11 14.8C26.11 15.98 26.47 17.11 27.19 18.19C27.91 19.25 29 20.11 30.46 20.77C31.92 21.43 33.75 21.76 35.95 21.76C37.71 21.76 39.18 21.47 40.36 20.89C41.56 20.29 42.47 19.55 43.09 18.67C43.71 17.77 44.02 16.87 44.02 15.97C44.02 15.27 43.83 14.62 43.45 14.02C43.07 13.4 42.49 12.91 41.71 12.55C40.95 12.17 39.98 11.98 38.8 11.98C37.84 11.98 36.94 12.1 36.1 12.34C35.28 12.58 34.59 12.91 34.03 13.33L33.82 13.15C34.42 12.69 35.15 12.34 36.01 12.1C36.89 11.84 37.82 11.71 38.8 11.71C40.04 11.71 41.06 11.91 41.86 12.31C42.68 12.71 43.29 13.23 43.69 13.87C44.09 14.49 44.29 15.17 44.29 15.91C44.29 16.87 43.97 17.82 43.33 18.76C42.71 19.7 41.78 20.48 40.54 21.1C39.3 21.72 37.76 22.03 35.92 22.03C33.64 22.03 31.74 21.68 30.22 20.98C28.72 20.28 27.6 19.37 26.86 18.25C26.12 17.11 25.75 15.91 25.75 14.65C25.75 13.51 26.06 12.38 26.68 11.26C27.32 10.14 28.26 9.12 29.5 8.2C30.74 7.28 32.25 6.55 34.03 6.01C35.83 5.45 37.87 5.17 40.15 5.17C42.23 5.17 44.22 5.4 46.12 5.86C48.04 6.32 49.88 6.89 51.64 7.57C53.42 8.23 55.12 8.9 56.74 9.58C58.38 10.24 59.95 10.8 61.45 11.26C62.97 11.72 64.43 11.95 65.83 11.95C66.31 11.95 66.65 11.91 66.85 11.83C67.07 11.73 67.18 11.6 67.18 11.44C67.18 11.28 67.04 11.14 66.76 11.02C66.48 10.9 66.08 10.84 65.56 10.84C64.18 10.84 62.85 11.17 61.57 11.83C60.31 12.47 59.12 13.32 58 14.38C56.88 15.44 55.83 16.6 54.85 17.86C53.87 19.12 52.97 20.37 52.15 21.61C51.11 23.17 50.14 24.83 49.24 26.59C48.36 28.33 47.64 30.06 47.08 31.78C46.54 33.48 46.27 35.07 46.27 36.55C46.27 37.49 46.4 38.36 46.66 39.16C46.92 39.98 47.31 40.63 47.83 41.11C48.37 41.61 49.04 41.86 49.84 41.86C50.26 41.86 50.62 41.79 50.92 41.65C51.24 41.53 51.53 41.34 51.79 41.08L51.85 41.32C51.59 41.56 51.3 41.75 50.98 41.89C50.66 42.03 50.28 42.1 49.84 42.1ZM24.85 41.11C22.49 41.11 20.31 40.77 18.31 40.09C16.33 39.41 14.61 38.45 13.15 37.21C11.69 35.99 10.56 34.55 9.76 32.89C8.94 31.21 8.53 29.38 8.53 27.4C8.53 25.34 8.96 23.43 9.82 21.67C10.68 19.91 11.89 18.38 13.45 17.08C15.01 15.78 16.84 14.77 18.94 14.05C21.04 13.33 23.33 12.97 25.81 12.97C28.37 12.97 30.63 13.39 32.59 14.23C34.55 15.07 36.05 16.26 37.09 17.8L36.91 17.98C35.89 16.46 34.42 15.29 32.5 14.47C30.6 13.65 28.37 13.24 25.81 13.24C23.37 13.24 21.11 13.6 19.03 14.32C16.97 15.02 15.17 16.01 13.63 17.29C12.11 18.55 10.92 20.04 10.06 21.76C9.22 23.48 8.8 25.36 8.8 27.4C8.8 29.34 9.2 31.13 10 32.77C10.8 34.41 11.92 35.83 13.36 37.03C14.8 38.23 16.49 39.16 18.43 39.82C20.39 40.5 22.53 40.84 24.85 40.84C26.89 40.84 28.78 40.59 30.52 40.09C32.26 39.61 33.77 38.93 35.05 38.05C36.35 37.17 37.36 36.13 38.08 34.93C38.82 33.75 39.19 32.46 39.19 31.06C39.19 29.62 38.69 28.34 37.69 27.22C36.71 26.1 35.36 25.22 33.64 24.58C31.92 23.94 29.96 23.62 27.76 23.62C25.88 23.62 24.36 23.91 23.2 24.49C22.04 25.05 21.46 25.79 21.46 26.71C21.46 28.31 22.8 29.11 25.48 29.11C26.58 29.11 27.66 28.97 28.72 28.69C29.8 28.39 30.77 27.98 31.63 27.46C32.51 26.92 33.21 26.29 33.73 25.57C34.25 24.85 34.51 24.04 34.51 23.14C34.51 22.26 34.25 21.51 33.73 20.89C33.21 20.27 32.55 19.77 31.75 19.39C30.95 19.01 30.1 18.73 29.2 18.55C28.3 18.37 27.46 18.28 26.68 18.28C24.88 18.28 23.25 18.53 21.79 19.03C20.35 19.51 19.11 20.17 18.07 21.01C17.05 21.83 16.26 22.77 15.7 23.83C15.14 24.89 14.86 26 14.86 27.16C14.86 28.58 15.23 29.82 15.97 30.88C16.73 31.92 17.79 32.73 19.15 33.31C20.51 33.87 22.09 34.15 23.89 34.15C25.45 34.15 26.95 33.95 28.39 33.55C29.85 33.15 31.28 32.57 32.68 31.81C34.1 31.03 35.52 30.1 36.94 29.02C38.38 27.92 39.86 26.68 41.38 25.3C42.92 23.92 44.53 22.42 46.21 20.8C47.89 19.18 49.69 17.46 51.61 15.64C52.01 15.3 52.59 14.85 53.35 14.29C54.11 13.71 55 13.14 56.02 12.58C57.06 12.02 58.18 11.58 59.38 11.26L60.16 11.38C58.88 11.64 57.69 12.06 56.59 12.64C55.49 13.2 54.53 13.78 53.71 14.38C52.89 14.98 52.25 15.49 51.79 15.91C50.63 16.93 49.5 18.09 48.4 19.39C47.32 20.69 46.24 22.03 45.16 23.41C44.08 24.79 42.96 26.13 41.8 27.43C40.66 28.71 39.46 29.86 38.2 30.88C37.1 31.76 35.84 32.56 34.42 33.28C33 33.98 31.48 34.54 29.86 34.96C28.26 35.38 26.61 35.59 24.91 35.59C22.55 35.59 20.6 35.21 19.06 34.45C17.54 33.69 16.41 32.67 15.67 31.39C14.95 30.11 14.59 28.7 14.59 27.16C14.59 25.96 14.87 24.81 15.43 23.71C15.99 22.61 16.79 21.64 17.83 20.8C18.89 19.94 20.17 19.26 21.67 18.76C23.17 18.26 24.85 18.01 26.71 18.01C27.43 18.01 28.25 18.1 29.17 18.28C30.09 18.44 30.98 18.72 31.84 19.12C32.7 19.52 33.4 20.06 33.94 20.74C34.5 21.4 34.78 22.22 34.78 23.2C34.78 24.14 34.51 24.99 33.97 25.75C33.43 26.51 32.7 27.16 31.78 27.7C30.88 28.22 29.88 28.63 28.78 28.93C27.7 29.21 26.6 29.36 25.48 29.38C22.62 29.38 21.19 28.49 21.19 26.71C21.19 25.71 21.79 24.9 22.99 24.28C24.21 23.66 25.8 23.35 27.76 23.35C30.02 23.35 32.03 23.68 33.79 24.34C35.55 25 36.93 25.91 37.93 27.07C38.95 28.23 39.46 29.56 39.46 31.06C39.46 32.5 39.09 33.83 38.35 35.05C37.63 36.27 36.61 37.33 35.29 38.23C33.97 39.15 32.42 39.86 30.64 40.36C28.86 40.86 26.93 41.11 24.85 41.11ZM39.22 26.05L39.37 25.75H52.93V26.05H39.22Z" fill="black"/>
<path d="M1.47 53.9L1.77 53.1H4.87L5.17 53.9H1.47ZM3.3 50.58L2.12 53.36L2.04 53.54L1 56H0.05L3.3 48.65L6.55 56H5.6L4.58 53.6L4.5 53.4L3.3 50.58ZM8.59883 52.5C8.59883 53.04 8.71883 53.5167 8.95883 53.93C9.20549 54.3433 9.52549 54.6667 9.91883 54.9C10.3122 55.1333 10.7388 55.25 11.1988 55.25C11.5322 55.25 11.8355 55.2067 12.1088 55.12C12.3888 55.0333 12.6422 54.9133 12.8688 54.76C13.0955 54.6 13.2888 54.4167 13.4488 54.21V55.33C13.1555 55.59 12.8355 55.7833 12.4888 55.91C12.1422 56.0367 11.7122 56.1 11.1988 56.1C10.7122 56.1 10.2555 56.0133 9.82883 55.84C9.40883 55.66 9.03883 55.41 8.71883 55.09C8.39883 54.7633 8.14883 54.38 7.96883 53.94C7.78883 53.5 7.69883 53.02 7.69883 52.5C7.69883 51.98 7.78883 51.5 7.96883 51.06C8.14883 50.62 8.39883 50.24 8.71883 49.92C9.03883 49.5933 9.40883 49.3433 9.82883 49.17C10.2555 48.99 10.7122 48.9 11.1988 48.9C11.7122 48.9 12.1422 48.9633 12.4888 49.09C12.8355 49.2167 13.1555 49.41 13.4488 49.67V50.79C13.2888 50.5833 13.0955 50.4033 12.8688 50.25C12.6422 50.09 12.3888 49.9667 12.1088 49.88C11.8355 49.7933 11.5322 49.75 11.1988 49.75C10.7388 49.75 10.3122 49.8667 9.91883 50.1C9.52549 50.3333 9.20549 50.6567 8.95883 51.07C8.71883 51.4767 8.59883 51.9533 8.59883 52.5ZM14.9418 49.8V49H19.3918V49.8H17.5918V56H16.7418V49.8H14.9418ZM21.2902 49H22.1402V56H21.2902V49ZM21.7602 49.8V49H23.1902C23.6436 49 24.0469 49.0867 24.4002 49.26C24.7602 49.4267 25.0436 49.6667 25.2502 49.98C25.4636 50.2933 25.5702 50.6667 25.5702 51.1C25.5702 51.5267 25.4636 51.9 25.2502 52.22C25.0436 52.5333 24.7602 52.7767 24.4002 52.95C24.0469 53.1167 23.6436 53.2 23.1902 53.2H21.7602V52.4H23.1902C23.6436 52.4 24.0102 52.29 24.2902 52.07C24.5769 51.85 24.7202 51.5267 24.7202 51.1C24.7202 50.6667 24.5769 50.3433 24.2902 50.13C24.0102 49.91 23.6436 49.8 23.1902 49.8H21.7602ZM27.7356 53.9L28.0356 53.1H31.1356L31.4356 53.9H27.7356ZM29.5656 50.58L28.3856 53.36L28.3056 53.54L27.2656 56H26.3156L29.5656 48.65L32.8156 56H31.8656L30.8456 53.6L30.7656 53.4L29.5656 50.58ZM35.6372 51.27L35.1172 56H34.2672L35.1172 48.65L37.9172 53.72L40.7172 48.65L41.5672 56H40.7172L40.1972 51.27L37.9172 55.35L35.6372 51.27ZM44.7356 53.9L45.0356 53.1H48.1356L48.4356 53.9H44.7356ZM46.5656 50.58L45.3856 53.36L45.3056 53.54L44.2656 56H43.3156L46.5656 48.65L49.8156 56H48.8656L47.8456 53.6L47.7656 53.4L46.5656 50.58ZM51.6672 49H52.5172V56H51.6672V49ZM52.1372 49.8V49H53.5672C54.0205 49 54.4239 49.0867 54.7772 49.26C55.1372 49.4267 55.4205 49.6667 55.6272 49.98C55.8405 50.2933 55.9472 50.6667 55.9472 51.1C55.9472 51.5267 55.8405 51.9 55.6272 52.22C55.4205 52.5333 55.1372 52.7767 54.7772 52.95C54.4239 53.1167 54.0205 53.2 53.5672 53.2H52.1372V52.4H53.5672C54.0205 52.4 54.3872 52.29 54.6672 52.07C54.9539 51.85 55.0972 51.5267 55.0972 51.1C55.0972 50.6667 54.9539 50.3433 54.6672 50.13C54.3872 49.91 54.0205 49.8 53.5672 49.8H52.1372ZM57.143 49.8V49H61.593V49.8H59.793V56H58.943V49.8H57.143Z" fill="black"/>
</svg>
