<svg width="42" height="42" viewBox="0 0 42 42" fill="none" xmlns="http://www.w3.org/2000/svg">
<path fill-rule="evenodd" clip-rule="evenodd" d="M8.56935 1.96312C9.13977 -0.642679 12.8501 -0.658897 13.4432 1.94181L13.4727 2.07151C13.4929 2.16069 13.5118 2.24398 13.532 2.33013C14.2715 5.47983 16.8205 7.88652 20.0113 8.44161C22.7267 8.91402 22.7267 12.812 20.0113 13.2845C16.8035 13.8425 14.2444 16.2719 13.5203 19.4464L13.4432 19.7843C12.8501 22.385 9.13977 22.3687 8.56935 19.763L8.5059 19.4731C7.80834 16.2866 5.25231 13.8388 2.0386 13.2797C-0.671384 12.8082 -0.671405 8.91786 2.0386 8.44641C5.24112 7.88925 7.79055 5.45652 8.49852 2.28627L8.54568 2.07164L8.56935 1.96312ZM31.9058 10.8494C32.4584 10.6169 33.0518 10.4971 33.6512 10.4971C34.2506 10.4971 34.844 10.6169 35.3966 10.8494C35.9471 11.0811 36.446 11.4201 36.8642 11.8466L36.8687 11.851L40.6673 15.6796C41.0867 16.0969 41.42 16.5929 41.6474 17.1391C41.876 17.6875 41.9936 18.2756 41.9936 18.8697C41.9936 19.4638 41.876 20.0519 41.6474 20.6003C41.4197 21.1467 41.0867 21.6428 40.667 22.0602L40.6625 22.0647L22.0702 40.7769C21.8201 41.0286 21.489 41.1834 21.1356 41.214L12.1356 41.994C11.6943 42.0324 11.2587 41.8737 10.9454 41.5605C10.6322 41.247 10.4735 40.8114 10.5117 40.3701L11.2917 31.3701C11.3223 31.0167 11.4772 30.6858 11.7289 30.4356L30.4421 11.8425C30.8594 11.4179 31.3568 11.0803 31.9058 10.8494Z" fill="white"/>
</svg>
