<svg width="19" height="15" viewBox="0 0 19 15" fill="none" xmlns="http://www.w3.org/2000/svg">
<g clip-path="url(#clip0_1_454)">
<path fill-rule="evenodd" clip-rule="evenodd" d="M0 2.9465C0 2.05889 0.899428 1.33936 2.00893 1.33936H16.7411C17.8505 1.33936 18.75 2.05889 18.75 2.9465V3.31287L9.88848 8.03986C9.7635 8.10414 9.58208 8.15003 9.37499 8.15003C9.16791 8.15003 8.98649 8.10414 8.8615 8.03986L0 3.31288V2.9465ZM0 4.92259V12.0536C0 12.9412 0.899428 13.6608 2.00893 13.6608H16.7411C17.8505 13.6608 18.75 12.9412 18.75 12.0536V4.92258L10.8049 9.16073C10.3835 9.38017 9.87741 9.48932 9.37499 9.48932C8.87258 9.48932 8.36654 9.38014 7.94514 9.1607L7.93737 9.15665L0 4.92259Z" fill="white"/>
</g>
<defs>
<clipPath id="clip0_1_454">
<rect width="18.75" height="15" fill="white"/>
</clipPath>
</defs>
</svg>
