<svg width="40" height="40" viewBox="0 0 40 40" fill="none" xmlns="http://www.w3.org/2000/svg">
<path d="M40.0001 29.8402V35.8402C40.0024 36.3972 39.8883 36.9485 39.6651 37.4589C39.442 37.9692 39.1147 38.4274 38.7043 38.8039C38.2938 39.1805 37.8093 39.4672 37.2816 39.6456C36.754 39.8241 36.1949 39.8903 35.6401 39.8402C29.4858 39.1715 23.5741 37.0685 18.3801 33.7002C13.5478 30.6295 9.45078 26.5325 6.38011 21.7002C3.00007 16.4826 0.896596 10.5422 0.24011 4.36019C0.190131 3.80713 0.25586 3.24971 0.433111 2.72344C0.610362 2.19717 0.895252 1.71357 1.26964 1.30344C1.64403 0.8933 2.09972 0.565613 2.60769 0.341238C3.11566 0.116863 3.66479 0.000716863 4.22011 0.000193905H10.2201C11.1907 -0.00935899 12.1317 0.334351 12.8676 0.967259C13.6036 1.60017 14.0843 2.47909 14.2201 3.44019C14.4734 5.36033 14.943 7.24565 15.6201 9.06019C15.8892 9.77604 15.9474 10.554 15.7879 11.302C15.6284 12.0499 15.2578 12.7364 14.7201 13.2802L12.1801 15.8202C15.0272 20.8273 19.173 24.9731 24.1801 27.8202L26.7201 25.2802C27.2639 24.7425 27.9504 24.3719 28.6983 24.2124C29.4463 24.0529 30.2243 24.1111 30.9401 24.3802C32.7547 25.0573 34.64 25.5269 36.5601 25.7802C37.5316 25.9173 38.4189 26.4066 39.0532 27.1552C39.6874 27.9038 40.0244 28.8593 40.0001 29.8402Z" fill="white"/>
</svg>
