<svg width="42" height="42" viewBox="0 0 42 42" fill="none" xmlns="http://www.w3.org/2000/svg">
<g clip-path="url(#clip0_1_383)">
<path fill-rule="evenodd" clip-rule="evenodd" d="M20.9915 0.0256348C12.5007 0.0256348 5.61759 6.90876 5.61759 15.3995C5.61759 23.8903 12.5007 30.7734 20.9915 30.7734C29.4823 30.7734 36.3653 23.8903 36.3653 15.3995C36.3653 6.90876 29.4823 0.0256348 20.9915 0.0256348ZM21.5994 7.29687L23.6476 11.417C23.6933 11.5213 23.766 11.6114 23.858 11.6784C23.9501 11.7453 24.0583 11.7866 24.1715 11.7981L28.7203 12.4888C28.8504 12.5057 28.9729 12.5593 29.0737 12.6433C29.1744 12.7273 29.2491 12.8383 29.289 12.9631C29.329 13.0881 29.3326 13.2218 29.2994 13.3486C29.2661 13.4755 29.1975 13.5903 29.1014 13.6796L25.7434 16.8709C25.6933 16.9664 25.6671 17.0727 25.6671 17.1805C25.6671 17.2884 25.6933 17.3946 25.7434 17.4901L26.3864 22.0152C26.4138 22.146 26.4027 22.2819 26.3544 22.4065C26.3062 22.5311 26.2228 22.639 26.1143 22.7172C26.0059 22.7954 25.8772 22.8404 25.7437 22.8468C25.6102 22.8532 25.4777 22.8208 25.3623 22.7535L21.3136 20.61C21.2088 20.5627 21.0951 20.5382 20.9802 20.5382C20.8652 20.5382 20.7515 20.5627 20.6467 20.61L16.598 22.7535C16.4826 22.8208 16.3501 22.8532 16.2166 22.8468C16.0831 22.8404 15.9544 22.7954 15.846 22.7172C15.7376 22.639 15.6542 22.5311 15.6059 22.4065C15.5576 22.2819 15.5465 22.146 15.5739 22.0152L16.336 17.4901C16.3688 17.3851 16.3751 17.2736 16.3543 17.1655C16.3335 17.0575 16.2863 16.9563 16.2169 16.8709L12.8589 13.6558C12.7698 13.5655 12.7073 13.4525 12.6782 13.3291C12.6491 13.2057 12.6545 13.0767 12.6939 12.9562C12.7332 12.8356 12.805 12.7283 12.9013 12.6458C12.9976 12.5634 13.1148 12.509 13.24 12.4888L17.7888 11.8219C17.902 11.8105 18.0102 11.7691 18.1023 11.7022C18.1943 11.6353 18.267 11.5451 18.3128 11.4409L20.3609 7.32069C20.4157 7.20408 20.5021 7.10508 20.6102 7.03497C20.7183 6.96483 20.8439 6.92637 20.9728 6.92388C21.1016 6.92142 21.2286 6.95502 21.3393 7.02096C21.45 7.08687 21.5401 7.18245 21.5994 7.29687ZM36.9017 26.0102C34.3505 29.8284 30.4616 32.6766 25.9051 33.885L30.1424 41.2239C30.4457 41.7495 31.0355 42.0402 31.637 41.961C32.2385 41.8818 32.7332 41.4483 32.8901 40.8621L34.4165 35.1663L40.1123 36.6924C40.6982 36.8496 41.3213 36.6381 41.6906 36.1569C42.0599 35.6754 42.1028 35.019 41.7995 34.4937L36.9017 26.0102ZM16.0922 33.8892C11.5347 32.685 7.64385 29.8401 5.08965 26.0249L0.200235 34.4937C-0.103111 35.019 -0.060088 35.6754 0.309244 36.1569C0.678574 36.6381 1.30148 36.8496 1.8875 36.6924L7.58334 35.1663L9.10953 40.8621C9.26655 41.4483 9.76113 41.8818 10.3626 41.961C10.9641 42.0402 11.5541 41.7495 11.8575 41.2239L16.0922 33.8892Z" fill="white"/>
</g>
<defs>
<clipPath id="clip0_1_383">
<rect width="42" height="42" fill="white"/>
</clipPath>
</defs>
</svg>
