<svg width="12" height="12" viewBox="0 0 12 12" fill="none" xmlns="http://www.w3.org/2000/svg">
<path d="M1.35355 11.3536C1.15829 11.5488 0.841709 11.5488 0.646447 11.3536C0.451184 11.1583 0.451184 10.8417 0.646447 10.6464L1.35355 11.3536ZM0.646447 10.6464L5.67183 5.62106L6.37894 6.32817L1.35355 11.3536L0.646447 10.6464Z" fill="black" fill-opacity="0.5"/>
<path d="M5.67181 6.37897C5.86707 6.57423 6.18365 6.57423 6.37891 6.37897C6.57417 6.18371 6.57417 5.86712 6.37891 5.67186L5.67181 6.37897ZM0.646449 1.35356L5.67181 6.37897L6.37891 5.67186L1.35355 0.646444L0.646449 1.35356Z" fill="black" fill-opacity="0.5"/>
<path d="M6.35355 11.3536C6.15829 11.5488 5.84171 11.5488 5.64645 11.3536C5.45118 11.1583 5.45118 10.8417 5.64645 10.6464L6.35355 11.3536ZM5.64645 10.6464L10.6718 5.62106L11.3789 6.32817L6.35355 11.3536L5.64645 10.6464Z" fill="black" fill-opacity="0.5"/>
<path d="M10.6718 6.37897C10.8671 6.57423 11.1836 6.57423 11.3789 6.37897C11.5742 6.18371 11.5742 5.86712 11.3789 5.67186L10.6718 6.37897ZM5.64645 1.35356L10.6718 6.37897L11.3789 5.67186L6.35355 0.646444L5.64645 1.35356Z" fill="black" fill-opacity="0.5"/>
</svg>
