<svg width="42" height="33" viewBox="0 0 42 33" fill="none" xmlns="http://www.w3.org/2000/svg">
<path fill-rule="evenodd" clip-rule="evenodd" d="M30.7413 6.67749H34.5C36.489 6.67749 38.3967 7.46766 39.8034 8.87418C41.2098 10.2807 42 12.1884 42 14.1775V26.1775C42 27.0058 41.3283 27.6775 40.5 27.6775H36.1689C36.1116 30.6268 33.7026 33.0001 30.7398 33.0001C27.7766 33.0001 25.3678 30.6268 25.3105 27.6775H14.999C14.9416 30.6268 12.5328 33.0001 9.56973 33.0001C6.60666 33.0001 4.1979 30.6268 4.14054 27.6775H1.5C0.671574 27.6775 0 27.0058 0 26.1775V5.17749C0 3.984 0.474108 2.83941 1.31802 1.99551C2.16193 1.15158 3.30651 0.67749 4.5 0.67749H22.5C23.6935 0.67749 24.8381 1.15158 25.682 1.99551C26.4594 2.7729 26.923 3.80541 26.9912 4.89624V16.2439C26.9912 17.2794 27.8307 18.1189 28.8662 18.1189C29.9018 18.1189 30.7413 17.2794 30.7413 16.2439V6.67749Z" fill="white"/>
</svg>
