<svg width="42" height="42" viewBox="0 0 42 42" fill="none" xmlns="http://www.w3.org/2000/svg">
<g clip-path="url(#clip0_1_389)">
<path fill-rule="evenodd" clip-rule="evenodd" d="M15.1464 0.826623C6.97473 3.19359 0.855293 10.3912 0.0825195 19.125H9.68313C10.2481 12.6788 12.1173 6.44766 15.1464 0.826623ZM9.68313 22.875H0.0825195C0.855293 31.6089 6.97473 38.8065 15.1464 41.1735C12.1172 35.5524 10.2481 29.3212 9.68313 22.875ZM19.9565 41.9745C16.3385 36.2565 14.099 29.7055 13.4488 22.875H28.5511C27.9009 29.7055 25.6613 36.2565 22.0432 41.9745C21.6976 41.9913 21.3498 42 21 42C20.6501 42 20.3022 41.9913 19.9565 41.9745ZM26.8534 41.1735C35.0252 38.8065 41.1446 31.6089 41.9174 22.875H32.3165C31.7516 29.3213 29.8825 35.5524 26.8534 41.1735ZM32.3165 19.125H41.9174C41.1446 10.3912 35.0252 3.19353 26.8534 0.826599C29.8826 6.44763 31.7516 12.6787 32.3165 19.125ZM19.9566 0.0254686C20.3022 0.00855546 20.6501 0 21 0C21.3498 0 21.6976 0.0085539 22.0432 0.025464C25.6613 5.74338 27.9008 12.2945 28.5511 19.125H13.4488C14.099 12.2945 16.3385 5.74338 19.9566 0.0254686Z" fill="white"/>
</g>
<defs>
<clipPath id="clip0_1_389">
<rect width="42" height="42" fill="white"/>
</clipPath>
</defs>
</svg>
