<svg width="374" height="328" viewBox="0 0 374 328" fill="none" xmlns="http://www.w3.org/2000/svg">
<path d="M30.5 195.5H10.2V180.9H15.4V177.2H0.799988V180.9H6V213.7H0.799988V217.4H15.4V213.7H10.2V198.6H30.5V213.7H25.3V217.4H39.8V213.7H34.6V180.9H39.8V177.2H25.3V180.9H30.5V195.5ZM88.6 217.4V213.7H83.5L67.4 177.2H56.7V180.9H62.2L47.3 213.7H42.2V217.4H56.8V213.7H51.7L55.9 204.5H74.8L78.9 213.7H73.6V217.4H88.6ZM73.6 201.1H57.1L65.4 181.7L73.6 201.1ZM125.7 213.7H120.3L111.7 202.7C118.7 202.7 124.1 197.1 124.1 190.3C124.1 186.4 122.5 182.7 119.5 180.1C116.3 177.5 113 177.2 109 177.2H91.3V180.9H96.6V213.7H91.3V217.4H105.6V213.7H100.7V180.9H108.7C111.8 180.9 114.5 181 116.9 183.2C118.9 185.1 120 187.6 120 190.5C120 193.7 118.3 196.8 115.4 198.5C112.7 200.2 109.7 200.1 106.6 200.1H105.1L117.7 217.4H125.7V213.7ZM134.4 213.7H129.1V217.4H147.3C153.3 217.4 157.9 216.1 162.1 211.7C165.8 207.9 167.9 202.7 167.9 197.4C167.9 191.9 165.9 186.5 161.8 182.6C157.5 178.5 153.1 177.2 147.3 177.2H129.1V180.9H134.4V213.7ZM138.5 213.7V180.9H146.7C151.5 180.9 155 181.6 158.6 184.9C162 188.1 163.8 192.8 163.8 197.4C163.8 201.6 162 206.2 159 209.3C155.5 212.9 151.4 213.7 146.5 213.7H138.5ZM188 180.9H196.8V187.9H200.4V177.2H171.4V187.9H175V180.9H183.8V213.7H178.6V217.4H193.2V213.7H188V180.9ZM212.6 182.5L227.9 217.4H231.1L247.8 182.3V213.7H242.6V217.4H257.2V213.7H251.9V180.9H257.2V177.2H245.9L229.6 211.4L214.8 177.2H203.3V180.9H208.5V213.7H203.3V217.4H218V213.7H212.6V182.5ZM292.8 180.9H298.1V177.2H283.8V180.9H288.7V203.2C288.7 206 288.5 208.7 286.6 211.1C284.8 213.2 282.3 214.2 279.5 214.2C276.5 214.2 273.8 213 272 210.6C270.4 208.3 270.3 205.8 270.3 203.1V180.9H275.2V177.2H260.9V180.9H266.2V203.6C266.2 207.6 266.6 211 269.5 214.1C272.2 216.9 275.7 218.2 279.6 218.2C283.4 218.2 287.1 216.8 289.6 214C292.2 211 292.8 207.8 292.8 204.1V180.9ZM318.6 180.9H327.4V187.9H331V177.2H302V187.9H305.6V180.9H314.4V213.7H309.2V217.4H323.8V213.7H318.6V180.9ZM363.9 195.5H343.5V180.9H348.8V177.2H334.2V180.9H339.4V213.7H334.2V217.4H348.8V213.7H343.5V198.6H363.9V213.7H358.7V217.4H373.2V213.7H368V180.9H373.2V177.2H358.7V180.9H363.9V195.5Z" fill="#231F20"/>
<path d="M190.5 12.9C190.5 12.9 190.5 16.7 187.1 15.9C187.1 15.9 187.5 18.1 189.6 18.6C189.6 18.6 187.5 23 193.4 24.6C193.4 24.6 189.5 24.4 188.8 27.9C188.8 27.9 188.2 31.3 191.5 32.7C191.5 32.7 185.3 33.6 187.7 38.9C187.7 38.9 189.8 43.5 195.3 45C195.3 45 198.5 45.9 203.1 44.4C203.1 44.4 206.4 43.3 210.1 43.2C213.5 43.1 216.4 43.5 220.9 45.8C220.9 45.8 222.2 46.4 223.5 47.5C224.6 48.4 226.1 50 227.6 51.7C227.6 51.7 229.1 53.6 231 53.7C231 53.7 235.2 53.9 235.8 49.2C235.8 49.2 236.1 45.5 232.7 40.8C232.7 40.8 230.7 38.2 228.7 35.2C226.8 32.6 225 30.1 223.6 27.8C223.6 27.8 219.1 20.8 222.8 12.8C222.8 12.8 226.1 4.00001 236.1 2.40001C236.1 2.40001 240.2 1.70001 243.8 3.00001C243.8 3.00001 242.9 7.40001 246.8 10.6C246.8 10.6 252.5 15 257.9 10.1C257.9 10.1 260.3 10.6 259.8 13.5C259.8 13.5 259.4 15.2 257.4 15.5C257.4 15.5 257.4 18.9 254.2 19.9C254.2 19.9 252.9 20.5 251.4 20C251.4 20 250 23.1 246.7 21.3C246.7 21.3 248.2 13.6 240.4 9.40001C240.4 9.40001 232.4 5.20001 226.1 12.9C226.1 12.9 223 16.7 224.5 23.3C224.5 23.3 225.6 26.6 227.4 28.9L234.7 39.3C234.7 39.3 237.8 43.3 238.3 47.6C238.3 47.6 239 51.4 236.9 54.9C236.9 54.9 235.9 57 232.8 58C232.8 58 230 58.4 229.3 61.3C229.3 61.3 228.5 65.2 232.7 66.8C232.7 66.8 235.8 68 238.7 66.3C238.7 66.3 241.6 64.6 241.1 61C241.1 61 242.9 64 245.5 63.1C245.5 63.1 247.6 62.9 248.5 60.5C248.5 60.5 247.3 63.9 250.3 65.9C250.3 65.9 246.4 71.1 247.8 78.1C247.8 78.1 248.9 85.2 255.2 89.3C255.2 89.3 249.9 87.8 246.6 92.9C246.6 92.9 244.1 97.4 247.4 101.4H236.4C236.4 101.4 233.1 101.7 232.9 98.8C232.9 98.8 232.9 96.4 230.9 96.2C230.9 96.2 229.9 96.1 229.2 96.9C229.2 96.9 229 96 229.1 95.4C229.1 95.4 229.7 91.1 235.7 90.7C235.7 90.7 240.6 90.6 241.7 87.5C241.7 87.5 244.2 81.3 239.8 79C239.8 79 236.9 76.8 229.3 82C229.3 82 226.6 84.1 225.6 86C225.6 86 217.9 85.8 213.3 66C213.3 66 208.8 66.2 207.6 71.8C207.6 71.8 206.3 78.3 208.5 81.5C208.5 81.5 210 84 211.9 83.6C211.9 83.6 208.7 84.8 209.5 88.6C209.5 88.6 207 84.3 199.5 91C199.5 91 194.9 95 192.3 101.5H179.5C179.5 101.5 177.1 101.4 177.2 98.8C177.2 98.8 177.3 96.6 175.5 96.1C175.5 96.1 174.6 95.9 173.8 96.7L173.9 95.4C173.9 95.4 174.5 91.4 180.4 91C180.4 91 183.2 90.7 185.6 92.3C185.6 92.3 188.4 94 192.9 91C192.9 91 200.5 85.8 196.2 80C196.2 80 191.5 74.1 184.1 77.7C184.1 77.7 185.9 71.4 194.2 65.2C194.2 65.2 199.8 60.9 204.6 60.3C204.6 60.3 198.4 57.7 186.3 63.1C186.3 63.1 179.3 66 177.5 70.9C177.5 70.9 176.6 68.4 173.8 68.4C173.8 68.4 171.2 68.1 169.6 71.4C169.6 71.4 169.6 68.4 167 67.9C167 67.9 165.2 67.6 164 69.1C164 69.1 164.1 66.4 161 66C161 66 157.8 65.9 157.7 69.4C157.7 69.4 155.7 66.3 148.7 69.8C148.7 69.8 143.7 72 140.4 78.5C140.4 78.5 133.9 75.7 129.6 82.1C129.6 82.1 129.7 80.1 127.4 79.9C125.1 79.7 124.9 81.8 124.9 81.8C122.9 80.7 123.4 78.4 123.4 78.4C123.7 77.1 123.1 76.4 123.1 76.4C123.1 76.4 122.2 75.2 120.1 75.8C120.1 75.8 119.1 71.7 123 68.5C123 68.5 124.9 67.1 126.4 67.1C126.4 67.1 127.5 69.4 131.9 68.3C131.9 68.3 137.8 67 144.5 61.3C144.5 61.3 152.3 54.6 150.5 50.3C150.5 50.3 148.8 46.5 137.9 52.6C137.9 52.6 140.1 49.6 134.2 44.4C134.2 44.4 130.2 40.6 123 40C123 40 123.1 32.9 115.6 31.2C115.6 31.2 117.6 30.6 116.9 28.4C116.2 26.2 114.2 26.8 114.2 26.8C114.4 24.5 116.7 24.1 116.7 24.1C118.1 23.9 118.5 23.1 118.5 23.1C118.5 23.1 119.2 21.9 117.9 20.1C117.9 20.1 121.3 17.7 125.8 20.1C125.8 20.1 127.8 21.3 128.3 22.7C128.3 22.7 126.6 24.6 129.3 28.3C129.3 28.3 132.7 33.3 140.5 37.3C140.5 37.3 150.4 41.8 149.8 33.8C149.8 33.8 151.7 34.4 153.6 34.8C153.6 34.8 158.7 35.9 161.1 35C161.1 35 165.4 34.1 166.1 28.5C166.1 28.5 162.5 28.8 161.3 30.9C161.3 30.9 160.7 27.8 157.2 26.2C157.2 26.2 160.3 25.6 162.2 24.8C162.2 24.8 166.3 23.3 163.6 22.6C167 21.4 166.8 19.5 166.8 19.5C166.8 18.9 166.6 18.5 166.3 18.1C163.7 15.4 158 16.9 158 16.9C156.6 17.3 154.1 18.8 155.5 21.1C155.5 21.1 151.7 20.3 150.8 12.2C150.8 12.2 149.7 9.40001 153.4 8.20001C153.4 8.20001 155.4 5.70001 159.7 5.80001C159.7 5.80001 166.2 0.40001 173.9 1.60001C173.9 1.60001 179 2.30001 181.1 4.80001C181.1 4.80001 185.7 5.70001 188.7 0.700012C188.7 0.700012 193.6 7.10001 184.7 11.1C184.7 11.1 188 14.8 190.5 12.9Z" fill="#EE1D23"/>
<path d="M161.7 22.9C158.1 23.7 156.7 22.5 156.7 22.5C156.7 22.5 148.6 24.5 145.3 17.7C145.3 17.7 144.6 16.6 143.7 17.2C142.2 18.6 145.5 21.9 145.5 21.9C148.3 24.6 152.3 24.7 152.3 24.7C158.5 24.9 161.7 22.9 161.7 22.9Z" fill="#EE1D23"/>
<path d="M209.2 279.6L188.8 267.5H202.4L209.2 279.6ZM195.2 253.9L208.7 254L188.3 266L195.2 253.9ZM186.9 265.3L179.9 253.3L186.9 241.6V265.3ZM186.8 291.8L180 280.1L186.9 268L186.8 291.8ZM164.9 279.3L171.6 267.5H185.5L164.9 279.3ZM165.1 253.9H178.7L185.5 266L165.1 253.9ZM211.5 252.5H195.2L187 238.9L178.7 252.5H162.5L170.5 266.5L162.5 280.7H178.7L187 294.5L195.1 280.7H211.5L203.6 266.7L211.5 252.5Z" fill="#EE1D23"/>
<path d="M128.4 322.6C128.4 324.2 127.9 325.5 126.7 326.5C125.7 327.4 124.4 327.8 122.9 327.8C122.1 327.8 121.4 327.7 120.8 327.4C120.2 327.1 119.6 326.7 119 326.1V327.3H116.4V322.6H119.9C119.9 323.3 120.2 323.9 120.7 324.3C121.2 324.8 121.8 325.1 122.4 325.1C123 325.1 123.5 324.9 123.8 324.6C124.2 324.2 124.5 323.7 124.5 323C124.5 322.1 123.8 321.4 122.4 320.9C121.7 320.7 121 320.5 120.3 320.3C119 319.9 118 319.3 117.4 318.6C116.7 317.9 116.3 316.9 116.3 315.6C116.3 314.1 116.9 312.8 117.9 311.9C118.9 311.1 120.1 310.6 121.6 310.6C122.3 310.6 122.9 310.7 123.4 311C123.9 311.2 124.4 311.5 125 312.1V311.1H127.5V315.4H124.1C124.1 314.9 124 314.4 123.6 314C123.2 313.7 122.7 313.5 122.1 313.5C121.6 313.5 121.1 313.6 120.8 313.9C120.4 314.2 120.3 314.6 120.3 315.2C120.3 315.9 120.6 316.4 121.2 316.8C121.7 317.1 122.3 317.3 123.1 317.4C123.8 317.6 124.4 317.8 125 318.1C126 318.5 126.7 319 127.3 319.7C128.1 320.5 128.4 321.5 128.4 322.6Z" fill="#231F20"/>
<path d="M132.2 309.1H135.6V305.6H132.2V309.1ZM130.2 311.1V314.5H132.1V323.9H130.1V327.3H137.5V323.9H135.7V311.1H130.2Z" fill="#231F20"/>
<path d="M155.3 327.3H148.5V323.9H150.3V317.3C150.3 316.5 150 315.8 149.4 315.2C148.8 314.6 148.2 314.3 147.4 314.3C146.3 314.3 145.5 314.8 144.9 315.6C144.4 316.3 144.2 316.9 144.2 317.5V323.9H145.9V327.3H139.2V323.9H141V314.5H139.1V311.1H144.2V313.2C145.2 311.4 146.6 310.6 148.4 310.6C150.1 310.6 151.3 311.2 152.2 312.4C153.1 313.6 153.5 315.2 153.5 317.3V323.9H155.3V327.3Z" fill="#231F20"/>
<path d="M172.5 321.8C172 323.6 171 325.1 169.6 326.2C168.2 327.2 166.7 327.8 165 327.8C162.7 327.8 160.8 326.9 159.2 325.3C157.6 323.6 156.8 321.6 156.8 319.2C156.8 316.9 157.6 314.9 159.2 313.2C160.7 311.5 162.5 310.6 164.5 310.6C165.4 310.6 166.2 310.8 166.9 311.1C167.5 311.4 168.2 311.9 168.9 312.7V311.1H171.9V316.6H168.6C168.2 315.8 167.6 315.2 167 314.9C166.4 314.5 165.6 314.3 164.7 314.3C163.4 314.3 162.3 314.8 161.5 315.8C160.7 316.8 160.3 317.9 160.3 319.3C160.3 320.6 160.8 321.8 161.6 322.7C162.5 323.7 163.6 324.2 164.8 324.2C166.5 324.2 167.8 323.4 168.6 321.8H172.5Z" fill="#231F20"/>
<path d="M186.6 317.9C186.3 316.7 185.9 315.8 185.1 315.1C184.4 314.3 183.4 313.9 182.2 313.9C181 313.9 179.9 314.3 179 315.1C178.3 315.7 177.7 316.7 177.5 317.9H186.6ZM189.9 319.1C189.9 319.6 189.9 319.9 189.9 320C189.9 320.2 189.9 320.4 189.8 320.7H177.4C177.7 321.8 178.3 322.8 179.2 323.5C180.1 324.2 181.1 324.6 182.2 324.6C183 324.6 183.7 324.4 184.2 324.1C184.7 323.9 185.2 323.4 185.7 322.7H189.3C188.7 324.3 187.7 325.6 186.5 326.5C185.3 327.4 183.8 327.8 182.2 327.8C179.9 327.8 177.9 327 176.4 325.3C175 323.7 174.2 321.7 174.2 319.3C174.2 317 175 314.9 176.6 313.3C178.2 311.6 180 310.7 182.2 310.7C184.5 310.7 186.3 311.6 187.8 313.4C189.2 315.1 189.9 317 189.9 319.1Z" fill="#231F20"/>
<path d="M199.7 305.5V309H202.7V323.7H200.3V327.2H208.9V323.7H206.5V305.5H199.7Z" fill="#231F20"/>
<path d="M210.7 305.6V312.6H214.4V309.1H220.4L212.4 327.3H216.6L224.3 309.2V305.6H210.7Z" fill="#231F20"/>
<path d="M237.4 313.2C237.4 312 237 311.1 236.2 310.3C235.5 309.5 234.5 309 233.5 309C232.4 309 231.5 309.4 230.8 310.2C230.1 311 229.7 312 229.7 313.1C229.7 314.2 230.1 315.1 230.8 315.9C231.6 316.7 232.5 317.1 233.5 317.1C234.6 317.1 235.5 316.7 236.3 316C237 315.2 237.4 314.3 237.4 313.2ZM241.2 313.4C241.2 314.4 241 315.3 240.7 316.2C240.4 316.9 240 317.7 239.5 318.4L233.7 327.3H229.5L234.2 320.2C233.8 320.4 233.5 320.5 233.4 320.5C233.1 320.6 232.8 320.6 232.5 320.6C230.5 320.6 228.9 319.8 227.7 318.3C226.6 316.9 226 315.2 226 313.1C226 310.9 226.7 309 228.2 307.5C229.7 305.9 231.5 305.1 233.6 305.1C235.7 305.1 237.5 305.9 239 307.6C240.4 309.2 241.2 311.1 241.2 313.4Z" fill="#231F20"/>
<path d="M253.8 321.1V311.9C253.8 311 253.5 310.3 252.8 309.7C252.1 309.1 251.2 308.8 250.3 308.8C249.3 308.8 248.5 309.1 247.8 309.8C247.1 310.4 246.8 311.1 246.8 311.8V321C246.8 321.9 247.2 322.7 247.9 323.3C248.6 323.9 249.4 324.2 250.4 324.2C251.2 324.2 252 323.9 252.7 323.2C253.4 322.5 253.8 321.9 253.8 321.1ZM257.7 320.8C257.7 322.7 256.9 324.3 255.4 325.7C254 327.1 252.3 327.8 250.3 327.8C248.4 327.8 246.7 327.1 245.2 325.7C243.7 324.3 242.9 322.7 242.9 320.9V311.5C242.9 310 243.7 308.5 245.1 307.1C246.6 305.7 248.4 305 250.2 305C252.1 305 253.9 305.7 255.4 307.1C256.9 308.5 257.7 310.1 257.7 311.8V320.8Z" fill="#231F20"/>
<path d="M0.799988 267.7H162.5V265.8H0.799988V267.7Z" fill="#EE1D23"/>
<path d="M211.5 267.7H373.2V265.8H211.5V267.7Z" fill="#EE1D23"/>
<path d="M0.799988 70.2H112.6V68.3H0.799988V70.2Z" fill="#EE1D23"/>
<path d="M151.7 141.2H137.1V146.2L151.7 146.1V141.2Z" fill="#231F20"/>
<path d="M42.8 155.8H38.9L22.4 140.1L38.2 125.6H41.8V118.6H23.9V125.6H27.8L14 138.7V125.6H18.6V118.6H1V125.6H5.70001V155.8H0.799988V162.7H18.6V155.8H14V141.8L28.4 155.8H24V162.7H42.8V155.8ZM82.6 124.2C78.1 119.7 72.7 117.4 66.4 117.4C59.9 117.4 54.4 119.7 49.7 124.2C45.1 128.7 42.8 134.1 42.8 140.4C42.8 146.8 45.1 152.3 49.6 156.9C54.1 161.5 59.6 163.8 66 163.8C72.5 163.8 78 161.5 82.5 156.9C87.1 152.2 89.3 146.7 89.3 140.2C89.3 134 87.1 128.6 82.6 124.2ZM76.4 150.9C73.5 153.8 70.1 155.3 66 155.3C62 155.3 58.5 153.8 55.6 150.8C52.8 147.9 51.4 144.3 51.4 140.2C51.4 136.2 52.8 132.9 55.8 130.1C58.8 127.3 62.3 125.9 66.4 125.9C70.4 125.9 73.8 127.3 76.6 130.2C79.3 133 80.7 136.5 80.7 140.4C80.7 144.5 79.3 148 76.4 150.9ZM135.1 155.7H130.4V125.6H135.1V118.6H117.5V125.6H122.2V136.2H104.7V125.6H109.5V118.6H92V125.6H96.6V155.7H91.7V162.7H109.5V155.7H105V144.8H122.2V155.7H117.3V162.7H135.1V155.7ZM171.2 155.8H166.6V125.6H171.2V118.6H153.3V125.6H158.3V155.8H153.4V162.7H171.2V155.8ZM237.3 118.6H219.6V125.6H224.3L224.2 148.1L203.2 118.6H190.8V125.6H195.4V155.8H190.6V162.7H208.5V155.8H204L203.9 133.5L224.7 162.7H232.5V125.6L237.3 125.5V118.6ZM278.6 124.2C274 119.7 268.6 117.4 262.3 117.4C255.9 117.4 250.4 119.7 245.7 124.2C241.1 128.7 238.8 134.1 238.8 140.4C238.8 146.8 241 152.3 245.6 156.9C250.1 161.5 255.6 163.8 262 163.8C268.5 163.8 274 161.5 278.5 156.9C283 152.2 285.3 146.7 285.3 140.2C285.3 134 283.1 128.6 278.6 124.2ZM272.4 150.9C269.5 153.8 266.1 155.3 262 155.3C257.9 155.3 254.5 153.8 251.6 150.8C248.8 147.9 247.3 144.3 247.3 140.2C247.3 136.2 248.8 132.9 251.8 130.1C254.8 127.3 258.3 125.9 262.4 125.9C266.4 125.9 269.8 127.3 272.5 130.2C275.3 133 276.7 136.5 276.7 140.4C276.7 144.5 275.2 148 272.4 150.9ZM327.2 124.2C322.7 119.7 317.3 117.4 311 117.4C304.6 117.4 299 119.7 294.4 124.2C289.7 128.7 287.4 134.1 287.4 140.4C287.4 146.8 289.7 152.3 294.2 156.9C298.8 161.5 304.3 163.8 310.7 163.8C317.1 163.8 322.6 161.5 327.2 156.9C331.7 152.2 334 146.7 334 140.2C334 134 331.7 128.6 327.2 124.2ZM321 150.9C318.2 153.8 314.7 155.3 310.7 155.3C306.6 155.3 303.1 153.8 300.3 150.8C297.4 147.9 296 144.3 296 140.2C296 136.2 297.5 132.9 300.5 130.1C303.4 127.3 307 125.9 311.1 125.9C315.1 125.9 318.5 127.3 321.2 130.2C324 133 325.3 136.5 325.3 140.4C325.3 144.5 323.9 148 321 150.9ZM373.2 155.8H368.2L361.3 147.1C364.9 146.3 367.6 144.9 369.3 143.1C371.4 141 372.4 137.8 372.4 133.6C372.4 129.7 371 126.3 368.1 123.2C365.1 120.1 361.6 118.6 357.6 118.6H335.7V125.6H340.3V155.8H335.4V162.7H352.2V155.8H348.7V143.1L362.5 162.7H373.2V155.8ZM361.4 140C359.7 141.5 357.6 142.2 355.1 142.2H348.7V126.2H357C358.9 126.2 360.6 127 362 128.7C363.3 130.3 364 132 364 133.9C364 136.4 363.1 138.4 361.4 140Z" fill="#231F20"/>
<path d="M188.3 141.2H173.7V146.2L188.3 146.1V141.2Z" fill="#231F20"/>
<path d="M257.6 70.2H373.2V68.3H257.6V70.2Z" fill="#EE1D23"/>
</svg>
